<?xml version="1.0" encoding="UTF-8"?>
<svg width="346px" height="47px" viewBox="0 0 346 47" version="1.1" xmlns="http://www.w3.org/2000/svg" xmlns:xlink="http://www.w3.org/1999/xlink">
    <!-- Generator: Sketch 50.2 (55047) - http://www.bohemiancoding.com/sketch -->
    <title>mimir-classroom-logotype-color-no-padding</title>
    <desc>Created with Sketch.</desc>
    <defs></defs>
    <g id="Page-1" stroke="none" stroke-width="1" fill="none" fill-rule="evenodd">
        <g id="mimir-classroom-logotype-color" transform="translate(-24.000000, -24.000000)" fill="#F57D2E">
            <g id="mimir-classroom-logotype-color-no-padding" transform="translate(24.000000, 24.000000)">
                <path d="M206.754093,34.3896582 C205.797933,35.2382982 202.931373,37.2197382 198.755373,37.2197382 C191.499693,37.2197382 186.190893,31.6997382 186.190893,24.3730182 C186.190893,17.0827782 191.676333,11.5262982 198.684333,11.5262982 C202.401453,11.5262982 205.054893,13.0469382 206.364333,14.1086982 L205.444653,16.6565382 C204.488493,15.8789382 202.046253,14.2142982 198.755373,14.2142982 C193.269933,14.2142982 189.163053,18.6053382 189.163053,24.3730182 C189.163053,30.1426182 193.093293,34.5298182 198.826413,34.5298182 C202.578093,34.5298182 205.020333,32.5848582 205.868973,31.8763782 L206.754093,34.3896582 Z" id="Fill-175"></path>
                <polygon id="Fill-178" points="210.433005 36.7598982 213.228525 36.7598982 213.228525 11.1720582 210.433005 11.1720582"></polygon>
                <path d="M223.916013,25.0454022 C226.250733,25.0454022 228.020973,25.9305222 228.764013,26.7100422 L228.764013,24.4444422 C228.764013,21.8601222 227.030253,20.3740422 224.305773,20.3740422 C222.040173,20.3740422 220.198893,21.1881222 218.889453,21.9676422 L217.756653,19.9132422 C218.996973,19.1356422 221.439213,17.8972422 224.551533,17.8972422 C229.578093,17.8972422 231.559533,20.6927622 231.559533,24.6210822 L231.559533,36.7612422 L229.153773,36.7612422 L228.835053,35.2022022 C227.878893,36.3004422 226.321773,37.2201222 223.844973,37.2201222 C219.809133,37.2201222 216.836973,34.6722822 216.836973,31.0972422 C216.836973,27.5951622 219.774573,25.0454022 223.916013,25.0454022 M224.305773,34.8854022 C226.995693,34.8854022 228.869613,33.2918022 228.869613,31.0626822 C228.869613,28.7625222 227.030253,27.2745222 224.269293,27.2745222 C221.473773,27.2745222 219.668973,28.9026822 219.668973,31.0626822 C219.668973,33.1862022 221.473773,34.8854022 224.305773,34.8854022" id="Fill-179"></path>
                <path d="M236.655021,32.0178822 C237.434541,33.4694022 238.742061,34.8498822 241.255341,34.8498822 C243.096621,34.8498822 244.653741,33.7881222 244.653741,31.9122822 C244.653741,27.6652422 235.416621,29.1148422 235.416621,22.8863622 C235.416621,19.7721222 237.999021,17.8962822 241.326381,17.8962822 C244.759341,17.8962822 246.529581,20.0543622 247.024941,21.4348422 L244.972461,22.6022022 C244.477101,21.6134022 243.520941,20.2329222 241.149741,20.2329222 C239.450541,20.2329222 238.106541,21.1871622 238.106541,22.7807622 C238.106541,26.9222022 247.378221,25.3650822 247.378221,31.7702022 C247.378221,35.0265222 244.690221,37.2210822 241.115181,37.2210822 C237.255981,37.2210822 235.522221,35.0265222 234.708141,33.2927622 L236.655021,32.0178822 Z" id="Fill-181"></path>
                <path d="M251.411949,32.0178822 C252.191469,33.4694022 253.500909,34.8498822 256.012269,34.8498822 C257.853549,34.8498822 259.410669,33.7881222 259.410669,31.9122822 C259.410669,27.6652422 250.173549,29.1148422 250.173549,22.8863622 C250.173549,19.7721222 252.757869,17.8962822 256.083309,17.8962822 C259.516269,17.8962822 261.286509,20.0543622 261.781869,21.4348422 L259.729389,22.6022022 C259.234029,21.6134022 258.277869,20.2329222 255.906669,20.2329222 C254.207469,20.2329222 252.863469,21.1871622 252.863469,22.7807622 C252.863469,26.9222022 262.135149,25.3650822 262.135149,31.7702022 C262.135149,35.0265222 259.447149,37.2210822 255.872109,37.2210822 C252.014829,37.2210822 250.279149,35.0265222 249.465069,33.2927622 L251.411949,32.0178822 Z" id="Fill-183"></path>
                <path d="M273.849453,20.6923782 C269.636973,20.6923782 268.398573,24.0197382 268.398573,27.9480582 L268.398573,36.7608582 L265.603053,36.7608582 L265.603053,18.3576582 L268.364013,18.3576582 L268.364013,21.4354182 C269.001453,19.5941382 271.053933,17.8968582 273.849453,17.8968582 L273.849453,20.6923782 Z" id="Fill-185"></path>
                <path d="M284.997933,17.8966662 C290.554413,17.8966662 294.588333,22.0381062 294.588333,27.5581062 C294.588333,33.0800262 290.483373,37.2214662 284.963373,37.2214662 C279.441453,37.2214662 275.371053,33.1510662 275.371053,27.5581062 C275.371053,22.0016262 279.510573,17.8966662 284.997933,17.8966662 M284.963373,34.6717062 C288.926253,34.6717062 291.758253,31.6630662 291.758253,27.5581062 C291.758253,23.4877062 288.926253,20.4445062 284.963373,20.4445062 C280.998573,20.4445062 278.237613,23.5241862 278.237613,27.5581062 C278.237613,31.6995462 281.033133,34.6717062 284.963373,34.6717062" id="Fill-187"></path>
                <path d="M306.549549,17.8966662 C312.106029,17.8966662 316.139949,22.0381062 316.139949,27.5581062 C316.139949,33.0800262 312.034989,37.2214662 306.513069,37.2214662 C300.993069,37.2214662 296.922669,33.1510662 296.922669,27.5581062 C296.922669,22.0016262 301.064109,17.8966662 306.549549,17.8966662 M306.513069,34.6717062 C310.477869,34.6717062 313.309869,31.6630662 313.309869,27.5581062 C313.309869,23.4877062 310.477869,20.4445062 306.513069,20.4445062 C302.550189,20.4445062 299.789229,23.5241862 299.789229,27.5581062 C299.789229,31.6995462 302.584749,34.6717062 306.513069,34.6717062" id="Fill-189"></path>
                <path d="M345.443373,36.7604742 L342.647853,36.7604742 L342.647853,25.6820742 C342.647853,22.2145542 341.232813,20.4443142 338.506413,20.4443142 C335.922093,20.4443142 333.977133,22.2855942 333.977133,25.7185542 L333.977133,36.7604742 L331.179693,36.7604742 L331.179693,25.1521542 C331.179693,22.2145542 329.551533,20.4443142 326.969133,20.4443142 C324.526893,20.4443142 322.508973,22.4967942 322.508973,25.6129542 L322.508973,36.7604742 L319.713453,36.7604742 L319.713453,18.3572742 L322.474413,18.3572742 L322.474413,21.0107142 C323.180973,19.4171142 325.127853,17.8964742 327.675693,17.8964742 C330.436653,17.8964742 332.383533,19.2423942 333.232173,21.2583942 C334.330413,19.0638342 336.524973,17.8964742 339.143853,17.8964742 C343.248813,17.8964742 345.443373,20.7995142 345.443373,24.8334342 L345.443373,36.7604742 Z" id="Fill-191"></path>
                <path d="M30.4927172,13.5065862 C32.6930372,11.3389062 34.8050372,9.25570617 36.9170372,7.17250617 C38.1707972,5.93794617 39.4111172,4.68994617 40.6783172,3.46882617 C45.8968772,-1.56349383 54.1816772,-0.916453829 58.5208772,4.88194617 C60.0165572,6.88066617 60.8479172,9.12898617 60.8440772,11.6633862 C60.8325572,19.3798662 60.8594372,27.0963462 60.8325572,34.8128262 C60.8171972,39.6281862 57.9141572,43.8387462 53.4482372,45.6531462 C49.0015172,47.4579462 43.9499972,46.4422662 40.5919172,43.0323462 C40.2175172,42.6521862 39.9967172,42.1222662 39.6338372,41.5481862 C37.0571972,44.8563462 34.1848772,46.5286662 30.4082372,46.5190662 C26.6872772,46.5075462 23.8879172,44.7814662 21.4341572,41.6825862 C21.0405572,42.2278662 20.8043972,42.6790662 20.4568772,43.0131462 C16.7378372,46.5824262 12.3775172,47.4656262 7.6082372,45.6973062 C3.0079172,43.9923462 0.0818372015,39.5936262 0.0568772015,34.6649862 C0.0165572015,27.0848262 -0.0602427985,19.5008262 0.0837572015,11.9225862 C0.177837202,6.89218617 2.6047172,3.10018617 7.2799172,1.08802617 C12.0011972,-0.947173829 16.4114372,-0.0946938291 20.1746372,3.37282617 C23.0930372,6.06274617 25.8251972,8.95042617 28.6456772,11.7459462 C29.2139972,12.3104262 29.8034372,12.8518662 30.4927172,13.5065862 M27.4245572,16.3750662 C27.2767172,16.1811462 27.1634372,15.9910662 27.0117572,15.8393862 C23.8706372,12.7251462 20.7371972,9.60130617 17.5787972,6.50434617 C15.1826372,4.15426617 11.8936772,3.45730617 8.9733572,4.78210617 C5.8475972,6.19906617 4.2002372,8.67010617 4.1963972,12.1433862 C4.1867972,19.7273862 4.1906372,27.3113862 4.2002372,34.8953862 C4.2002372,35.4310662 4.2347972,35.9840262 4.3634372,36.5005062 C5.2927172,40.1888262 8.4165572,42.5965062 12.1701572,42.5485062 C15.8623172,42.5005062 18.8767172,39.9584262 19.7234372,36.0243462 C19.9922372,34.7705862 20.5855172,34.0505862 21.8335172,33.9776262 C22.9279172,33.9123462 23.6939972,34.7897862 23.9186372,36.2182662 C23.9531972,36.4409862 23.9493572,36.6694662 23.9781572,36.8921862 C24.4562372,40.6150662 28.2693572,43.2339462 31.9077572,42.3411462 C34.9509572,41.5942662 36.6962372,39.5206662 37.1186372,36.0512262 C37.2664772,34.8416262 37.8693572,34.0774662 39.0578372,33.9987462 C40.2578372,33.9200262 40.9643972,34.6515462 41.2370372,35.8035462 C41.3618372,36.3277062 41.4367172,36.8729862 41.6325572,37.3702662 C42.9803972,40.7936262 46.6975172,43.0361862 50.0037572,42.4505862 C54.1336772,41.7190662 56.8063172,38.7238662 56.8504772,34.4537862 C56.9291972,27.0061062 56.9387972,19.5565062 56.8447172,12.1088262 C56.8005572,8.66242617 55.1647172,6.02818617 51.8699972,4.73218617 C48.7154372,3.49186617 45.8565572,4.14082617 43.4143172,6.51778617 C41.9570372,7.93474617 40.4901572,9.33826617 39.0463172,10.7667462 C37.1935172,12.5965062 35.3618372,14.4454662 33.6645572,16.1408262 C35.3253572,17.8361862 36.8843972,19.4259462 38.7103172,21.2902662 C41.4597572,18.4371462 44.2552772,15.5590662 47.0200772,12.6521862 C47.8015172,11.8323462 48.6616772,11.3254662 49.7733572,11.7824262 C50.8581572,12.2259462 51.0290372,13.2128262 51.0271172,14.2630662 C51.0213572,20.8525062 51.0213572,27.4438662 51.0271172,34.0352262 C51.0290372,35.0816262 50.8735172,36.0320262 49.7848772,36.5158662 C48.6098372,37.0342662 47.8245572,36.3814662 47.0565572,35.6115462 C44.5394372,33.0886662 42.0069572,30.5753862 39.4763972,28.0640262 C39.1346372,27.7241862 38.7659972,27.4112262 38.3531972,27.0329862 C37.8981572,27.4477062 37.5275972,27.7683462 37.1800772,28.1101062 C35.5039172,29.7536262 33.8431172,31.4125062 32.1573572,33.0464262 C31.0053572,34.1600262 30.0031172,34.1849862 28.8511172,33.0963462 C27.5378372,31.8579462 26.2763972,30.5638662 24.9861572,29.3005062 C24.2277572,28.5555462 23.4597572,27.8201862 22.6495172,27.0349062 C22.1483972,27.5091462 21.7835972,27.8413062 21.4360772,28.1869062 C18.9055172,30.6982662 16.3711172,33.2057862 13.8520772,35.7286662 C13.1416772,36.4409862 12.3890372,36.9766662 11.3407172,36.5600262 C10.2520772,36.1280262 10.0159172,35.2429062 10.0197572,34.1485062 C10.0466372,27.5129862 10.0447172,20.8774662 10.0216772,14.2419462 C10.0178372,13.1667462 10.2002372,12.2451462 11.2946372,11.7997062 C12.3909572,11.3523462 13.1858372,11.9149062 13.9288772,12.6560262 C16.3288772,15.0425862 18.7403972,17.4195462 21.1519172,19.7945862 C21.6223172,20.2573062 22.1099972,20.7008262 22.6034372,21.1635462 C24.2699972,19.5085062 25.8251972,17.9629062 27.4245572,16.3750662 M25.7714372,24.2355462 C27.1730372,25.6486662 28.5458372,27.0733062 29.9762372,28.4384262 C30.1624772,28.6150662 30.7883972,28.6304262 30.9688772,28.4633862 C32.4434372,27.0867462 33.8603972,25.6505862 35.1429572,24.3833862 C33.5589572,22.6457862 32.0555972,20.9984262 30.5522372,19.3491462 C28.9183172,21.0176262 27.3842372,22.5862662 25.7714372,24.2355462 M14.1592772,18.6176262 L14.1592772,29.6480262 C16.0562372,27.7837062 17.6901572,26.1977862 19.2875972,24.5734662 C19.4354372,24.4237062 19.4680772,23.9053062 19.3375172,23.7709062 C17.7208772,22.1158662 16.0639172,20.4992262 14.1592772,18.6176262 M46.7800772,29.4253062 L46.7800772,18.8422662 C44.9023172,20.7277062 43.1762372,22.4633862 41.6306372,24.0166662 C43.3087172,25.7792262 44.9733572,27.5283462 46.7800772,29.4253062" id="Fill-193"></path>
                <polygon id="Fill-196" points="98.6849732 26.7167622 104.277933 11.9942022 113.407533 11.9942022 113.407533 36.7679622 106.683693 36.7679622 106.683693 21.6902022 101.904813 36.7679622 95.4996932 36.7679622 90.7572932 21.6902022 90.7572932 36.7679622 83.9969732 36.7679622 83.9969732 11.9942022 93.1649732 11.9942022"></polygon>
                <path d="M120.447597,10.1531142 C122.465517,10.1531142 124.128237,11.6046342 124.128237,13.5860742 C124.128237,15.5329542 122.465517,16.9844742 120.447597,16.9844742 C118.429677,16.9844742 116.801517,15.5329542 116.801517,13.5860742 C116.801517,11.6046342 118.429677,10.1531142 120.447597,10.1531142 Z M117.014637,36.7681542 L123.880557,36.7681542 L123.880557,18.0807942 L117.014637,18.0807942 L117.014637,36.7681542 Z" id="Fill-197"></path>
                <path d="M154.529517,36.7679622 L147.663597,36.7679622 L147.663597,25.6204422 C147.663597,24.4511622 146.955117,23.6735622 145.858797,23.6735622 C144.797037,23.6735622 144.159597,24.5222022 144.159597,25.6204422 L144.159597,36.7679622 L137.330157,36.7679622 L137.330157,25.7606022 C137.330157,24.4511622 136.692717,23.6735622 135.559917,23.6735622 C134.498157,23.6735622 133.860717,24.3090822 133.860717,25.6550022 L133.860717,36.7679622 L126.994797,36.7679622 L126.994797,18.0806022 L133.684077,18.0806022 L133.684077,19.8508422 C134.319597,18.8601222 135.700077,17.6198022 138.213357,17.6198022 C140.265837,17.6198022 141.859437,18.4338822 142.921197,19.8143622 C144.053997,18.5414022 145.716717,17.6198022 148.124397,17.6198022 C152.371437,17.6198022 154.529517,20.8415622 154.529517,24.7353222 L154.529517,36.7679622 Z" id="Fill-199"></path>
                <path d="M160.933293,10.1531142 C162.951213,10.1531142 164.613933,11.6046342 164.613933,13.5860742 C164.613933,15.5329542 162.951213,16.9844742 160.933293,16.9844742 C158.915373,16.9844742 157.287213,15.5329542 157.287213,13.5860742 C157.287213,11.6046342 158.915373,10.1531142 160.933293,10.1531142 Z M157.500333,36.7681542 L164.366253,36.7681542 L164.366253,18.0807942 L157.500333,18.0807942 L157.500333,36.7681542 Z" id="Fill-201"></path>
                <path d="M179.018157,24.3098502 C178.770477,24.2388102 178.380717,24.1677702 177.919917,24.1677702 C175.619757,24.1677702 174.346797,25.6192902 174.346797,28.0615302 L174.346797,36.7687302 L167.480877,36.7687302 L167.480877,18.0813702 L174.168237,18.0813702 L174.168237,20.4525702 C175.089837,18.6823302 177.000237,17.6205702 179.018157,17.6205702 L179.018157,24.3098502 Z" id="Fill-203"></path>
            </g>
        </g>
    </g>
</svg>